<svg width="24" height="40" fill="none" xmlns="http://www.w3.org/2000/svg"><path d="M21 5H3l2.275 31.978A1.1 1.1 0 0 0 6.372 38h12.014a1.1 1.1 0 0 0 1.099-1.048L21 5ZM2 3.462V5h20V3.462S20.012 3.59 18 3c-1.923-.563-4-2-6-2S7.92 2.483 6 3c-2.323.626-4 .462-4 .462Z" fill="#fff"/><circle cx="12" cy="18" r="5.45" fill="#00754A" stroke="#000" stroke-width="1.1"/><path fill-rule="evenodd" clip-rule="evenodd" d="M6.143 3.531c.78-.21 1.592-.574 2.366-.92.23-.103.457-.205.679-.3 1.006-.434 1.935-.761 2.812-.761.88 0 1.81.318 2.814.745.253.107.513.223.777.341.742.33 1.515.675 2.254.892 1.06.31 2.105.43 2.88.473.278.016.524.021.725.022v.427H2.55v-.419c.17 0 .375-.004.608-.016.741-.04 1.78-.16 2.985-.484ZM2.488 5.55H2A.55.55 0 0 1 1.45 5V3.462a.55.55 0 0 1 .603-.548L2 3.462l.054-.548.01.001.048.004c.044.002.112.006.202.009.18.005.447.006.786-.012a13.366 13.366 0 0 0 2.757-.447C6.544 2.284 7.245 1.97 8 1.632c.244-.109.494-.22.751-.331C9.766.864 10.877.45 12 .45c1.12 0 2.228.4 3.244.833.296.125.581.252.86.377.718.32 1.388.618 2.05.812.953.28 1.909.39 2.631.43a12.77 12.77 0 0 0 1.163.012l.014-.001h.003a.55.55 0 0 1 .585.549V5a.55.55 0 0 1-.55.55h-.476l-1.49 31.428a1.65 1.65 0 0 1-1.648 1.572H6.372a1.65 1.65 0 0 1-1.645-1.533L2.487 5.55Zm1.103 0h16.832l-1.488 31.376a.55.55 0 0 1-.55.524H6.373a.55.55 0 0 1-.548-.511L3.59 5.55Z" fill="#000"/></svg>